<svg id="Layer_1" data-name="Layer 1" xmlns="http://www.w3.org/2000/svg" viewBox="0 0 25 25"><title>Icons</title><path d="M11.15,10.68a.48.48,0,0,0-.49.49v4.45a.49.49,0,0,0,.49.5.54.54,0,0,0,.5-.5V11.17a.53.53,0,0,0-.5-.49Z"/><path d="M13.85,10.68a.53.53,0,0,0-.5.49v4.45a.53.53,0,0,0,.49.5.49.49,0,0,0,.49-.5V11.17A.48.48,0,0,0,13.85,10.68Z"/><path d="M18.1,8.24H15.26V7.77A1.32,1.32,0,0,0,14,6.45h-2.9A1.32,1.32,0,0,0,9.74,7.77v.47H6.9a.5.5,0,0,0-.5.5.48.48,0,0,0,.46.49h.91l.52,8.08a1.3,1.3,0,0,0,1.32,1.24h5.78a1.3,1.3,0,0,0,1.32-1.24l.52-8.08h.87a.48.48,0,0,0,.5-.46v0a.5.5,0,0,0-.5-.5Zm-7.37-.47a.32.32,0,0,1,.32-.33H14a.33.33,0,0,1,.33.33v.47H10.73Zm5,9.48a.31.31,0,0,1-.31.31H9.61a.3.3,0,0,1-.33-.29v0l-.51-8h7.46Z"/></svg>