<svg id="Layer_1" data-name="Layer 1" xmlns="http://www.w3.org/2000/svg" viewBox="0 0 25 25"><title>Icons</title><path d="M19.64,12.5c0-.22,0-.43,0-.65l1.77-1.34a1,1,0,0,0,.24-1.24L19.84,6.2a.93.93,0,0,0-1.18-.4l-2.05.87A6.86,6.86,0,0,0,15.5,6l-.28-2.2A1,1,0,0,0,14.28,3H10.73a1,1,0,0,0-1,.83L9.5,6a6.86,6.86,0,0,0-1.11.65L6.34,5.8a.93.93,0,0,0-1.18.4L3.38,9.28a1,1,0,0,0,.24,1.24l1.77,1.34c0,.21,0,.42,0,.64s0,.43,0,.65L3.62,14.49a1,1,0,0,0-.24,1.24L5.16,18.8a.93.93,0,0,0,1.18.4l2.05-.87A6.86,6.86,0,0,0,9.5,19l.28,2.2a1,1,0,0,0,.94.83h3.55a1,1,0,0,0,.94-.83l.28-2.2a6.86,6.86,0,0,0,1.11-.65l2,.87a.93.93,0,0,0,1.18-.4l1.78-3.07a1,1,0,0,0-.24-1.24L19.6,13.15A4.73,4.73,0,0,0,19.64,12.5Zm-7.1,3.33a3.33,3.33,0,1,1,3.33-3.33A3.33,3.33,0,0,1,12.54,15.83Z"/></svg>