<svg id="Layer_1" data-name="Layer 1" xmlns="http://www.w3.org/2000/svg" viewBox="0 0 25 25"><title>Icons</title><path d="M23.4,16.28a4.27,4.27,0,0,0-3.33-2.56L17.94,7.07H19A1.29,1.29,0,1,0,19,4.5H6.61A5.11,5.11,0,0,0,1.5,9.61v6.15a1.27,1.27,0,0,0,.77,1.17.55.55,0,0,0,.17.05,2.62,2.62,0,0,0-.19,1A2.55,2.55,0,0,0,7.1,19H17.16a2.55,2.55,0,0,0,4.85-1,1.35,1.35,0,0,0,.71-.08A1.3,1.3,0,0,0,23.4,16.28ZM4.8,19a1,1,0,1,1,1-1A1,1,0,0,1,4.8,19Zm1.4-7.83a.78.78,0,0,1-.78.78H4.25a.78.78,0,0,1-.78-.78V8.73A1.66,1.66,0,0,1,5.13,7.07h.29a.78.78,0,0,1,.78.77Zm7.36,4.8a.52.52,0,0,1-.52.52H11.81a.53.53,0,0,1-.51-.39,6.86,6.86,0,0,0-3.13-4,.52.52,0,0,1-.27-.46v-4a.52.52,0,0,1,.52-.52H13a.52.52,0,0,1,.52.52ZM17.24,13H15.93a.78.78,0,0,1-.78-.79V7.45c0-.35.16-.38.36-.38h.37c.23,0,.37.18.45.42s1.51,4.73,1.51,4.73A.63.63,0,0,1,17.24,13ZM19.46,19a1,1,0,1,1,1-1A1,1,0,0,1,19.46,19Z"/></svg>