<?xml version="1.0" encoding="utf-8"?>
<!-- Generator: Adobe Illustrator 23.1.0, SVG Export Plug-In . SVG Version: 6.00 Build 0)  -->
<svg version="1.1" id="Layer_1" xmlns="http://www.w3.org/2000/svg" xmlns:xlink="http://www.w3.org/1999/xlink" x="0px" y="0px"
	 viewBox="0 0 25 25" style="enable-background:new 0 0 25 25;" xml:space="preserve">
<style type="text/css">
	.st0{fill:#FFFFFF;}
</style>
<title>Icons</title>
<g>
	<path class="st0" d="M17,11.6h-3.7V8c0-0.5-0.4-0.8-0.8-0.8c-0.5,0-0.9,0.4-0.9,0.8v3.6H8c-0.5,0-0.8,0.4-0.8,0.8
		c0,0.5,0.4,0.9,0.8,0.9h3.7V17c0,0.5,0.4,0.8,0.8,0.8c0.5,0,0.8-0.4,0.8-0.8v-3.7H17c0.5,0,0.8-0.4,0.8-0.8
		C17.8,12,17.5,11.7,17,11.6z"/>
	<path class="st0" d="M12.5,2.4C6.9,2.4,2.4,6.9,2.4,12.5s4.5,10.1,10.1,10.1c5.6,0,10.1-4.5,10.1-10.1C22.6,6.9,18.1,2.4,12.5,2.4z
		 M12.5,20.9c-4.6,0-8.4-3.8-8.4-8.4s3.8-8.4,8.4-8.4c4.6,0,8.4,3.8,8.4,8.4C20.9,17.1,17.1,20.9,12.5,20.9z"/>
</g>
</svg>
