<svg id="Layer_1" data-name="Layer 1" xmlns="http://www.w3.org/2000/svg" viewBox="0 0 25 25"><defs><style>.cls-1{fill:#fff;}</style></defs><title>Icons</title><path class="cls-1" d="M5.36,12.38v3.8a1.43,1.43,0,0,0,2.86,0v-3.8a1.43,1.43,0,1,0-2.86,0Zm5.71,0v3.8a1.43,1.43,0,0,0,2.86,0v-3.8a1.43,1.43,0,1,0-2.86,0Zm-6.18,10H20.11a1.43,1.43,0,0,0,0-2.86H4.89a1.43,1.43,0,0,0,0,2.86Zm11.89-10v3.8a1.43,1.43,0,0,0,2.86,0v-3.8a1.43,1.43,0,1,0-2.86,0ZM11.62,2.85l-7.52,4a1.19,1.19,0,0,0,.55,2.24H20.36a1.19,1.19,0,0,0,.54-2.24l-7.52-4A1.89,1.89,0,0,0,11.62,2.85Z"/></svg>