<svg id="Layer_1" data-name="Layer 1" xmlns="http://www.w3.org/2000/svg" viewBox="0 0 25 25"><defs><style>.cls-1{fill:#fff;fill-rule:evenodd;}</style></defs><title>Icons</title><path class="cls-1" d="M12.46,3A9.49,9.49,0,1,0,22,12.54,9.47,9.47,0,0,0,12.46,3Zm0,2.2a7.38,7.38,0,0,1,7,5,56.38,56.38,0,0,1-13.86,0,7.29,7.29,0,0,1,6.89-5ZM11.19,19.79a7.38,7.38,0,0,1-5.9-7.18C8.77,12.61,11.75,16.66,11.19,19.79Zm2.55,0a7.38,7.38,0,0,0,5.9-7.18c-3.48,0-6.46,4.05-5.9,7.18Zm-1.28-8.46a1.2,1.2,0,0,1,1.21,1.21,1.18,1.18,0,0,1-1.21,1.13,1.11,1.11,0,0,1-1.13-1.13A1.14,1.14,0,0,1,12.46,11.33Z"/></svg>