<svg id="Layer_1" data-name="Layer 1" xmlns="http://www.w3.org/2000/svg" viewBox="0 0 25 25"><defs><style>.cls-1{fill:#fff;}</style></defs><title>Icons</title><path class="cls-1" d="M7.76,7.69h4.12A.69.69,0,0,0,12.57,7h0a.69.69,0,0,0-.69-.69H7.76A1.37,1.37,0,0,0,6.39,7.69v9.62a1.37,1.37,0,0,0,1.37,1.38h4.12a.69.69,0,0,0,.69-.69h0a.69.69,0,0,0-.69-.69H7.76Z"/><path class="cls-1" d="M18.52,12.26,16.6,10.34a.34.34,0,0,0-.59.24v1.23H11.2a.69.69,0,0,0-.69.69h0a.69.69,0,0,0,.69.69H16v1.23a.34.34,0,0,0,.58.24l1.92-1.92A.34.34,0,0,0,18.52,12.26Z"/></svg>