<svg id="Layer_1" data-name="Layer 1" xmlns="http://www.w3.org/2000/svg" viewBox="0 0 25 25"><defs><style>.cls-1{fill:#fff;}</style></defs><title>Icons</title><path class="cls-1" d="M16.31,11.55H8.69a.95.95,0,1,0,0,1.9h7.62a.95.95,0,1,0,0-1.9Zm2.85-6.66h-.95V3.94a1,1,0,1,0-1.9,0v.95H8.69V3.94a1,1,0,1,0-1.9,0v.95h-1a1.9,1.9,0,0,0-1.9,1.9V20.11A1.89,1.89,0,0,0,5.84,22H19.16a1.9,1.9,0,0,0,1.9-1.9V6.79A1.91,1.91,0,0,0,19.16,4.89Zm-.95,15.22H6.79a1,1,0,0,1-1-.95V9.65H19.16v9.51A1,1,0,0,1,18.21,20.11Zm-4.76-4.76H8.69a1,1,0,0,0,0,1.91h4.76a1,1,0,0,0,0-1.91Z"/></svg>